<svg xmlns="http://www.w3.org/2000/svg" viewBox="0 0 166.93 72.66"><title>tsp-logo</title><g id="Layer_2" data-name="Layer 2"><g id="logo"><path d="M108.66,29.05A16.5,16.5,0,0,1,83.28,28" fill="none" stroke="#8dc63f" stroke-miterlimit="10" stroke-width="3"/><text transform="translate(0 55.79)" font-size="55" fill="#fffefe" font-family="TimesNewRomanPSMT, Times New Roman">TSP</text><text transform="translate(119.37 12.6)" font-size="8" fill="#fffefe" font-family="TimesNewRomanPSMT, Times New Roman">INTEGRITY</text><text transform="translate(119.37 20.6)" font-size="8" fill="#fffefe" font-family="TimesNewRomanPSMT, Times New Roman">DISCRETION</text><text transform="translate(119.37 28.6)" font-size="8" fill="#fffefe" font-family="TimesNewRomanPSMT, Times New Roman">RESULTS</text><g id="logo-icon"><path d="M83.28,28A16.5,16.5,0,0,1,108.74,7" fill="none" stroke="#8dc63f" stroke-miterlimit="10" stroke-width="3"/><path d="M108.66,29.05" fill="none" stroke="#8dc63f" stroke-miterlimit="10" stroke-width="3"/><path d="M111.91,12.5a4.49,4.49,0,0,1,3.74,2,4.5,4.5,0,1,0-7.48,0A4.49,4.49,0,0,1,111.91,12.5Z" fill="#8dc63f"/><circle cx="111.91" cy="24" r="4.5" fill="#8dc63f"/><path d="M111.91,18.5a4.49,4.49,0,0,1,3.74,2,4.5,4.5,0,1,0-7.48,0A4.49,4.49,0,0,1,111.91,18.5Z" fill="#8dc63f"/></g></g></g></svg>